<mxfile host="65bd71144e">
    <diagram id="nzj4xnl-at-yW_SZHucE" name="Page-1">
        <mxGraphModel dx="591" dy="911" grid="1" gridSize="10" guides="1" tooltips="1" connect="1" arrows="1" fold="1" page="1" pageScale="1" pageWidth="850" pageHeight="1100" math="0" shadow="0">
            <root>
                <mxCell id="0"/>
                <mxCell id="1" parent="0"/>
                <mxCell id="GIKGNwncqvEjht2F7XLn-5" value="Book" style="swimlane;fontStyle=3;align=center;verticalAlign=top;childLayout=stackLayout;horizontal=1;startSize=26;horizontalStack=0;resizeParent=1;resizeParentMax=0;resizeLast=0;collapsible=1;marginBottom=0;" parent="1" vertex="1">
                    <mxGeometry x="31" y="40" width="220" height="178" as="geometry"/>
                </mxCell>
                <mxCell id="GIKGNwncqvEjht2F7XLn-6" value="- bookId:int&#10;- bookName:String&#10;- ISBN:int&#10;- bookPublisherName:String" style="text;strokeColor=none;fillColor=none;align=left;verticalAlign=top;spacingLeft=4;spacingRight=4;overflow=hidden;rotatable=0;points=[[0,0.5],[1,0.5]];portConstraint=eastwest;" parent="GIKGNwncqvEjht2F7XLn-5" vertex="1">
                    <mxGeometry y="26" width="220" height="74" as="geometry"/>
                </mxCell>
                <mxCell id="GIKGNwncqvEjht2F7XLn-7" value="" style="line;strokeWidth=1;fillColor=none;align=left;verticalAlign=middle;spacingTop=-1;spacingLeft=3;spacingRight=3;rotatable=0;labelPosition=right;points=[];portConstraint=eastwest;" parent="GIKGNwncqvEjht2F7XLn-5" vertex="1">
                    <mxGeometry y="100" width="220" height="78" as="geometry"/>
                </mxCell>
                <mxCell id="GIKGNwncqvEjht2F7XLn-12" value="BookItem" style="swimlane;fontStyle=1;align=center;verticalAlign=top;childLayout=stackLayout;horizontal=1;startSize=26;horizontalStack=0;resizeParent=1;resizeParentMax=0;resizeLast=0;collapsible=1;marginBottom=0;" parent="1" vertex="1">
                    <mxGeometry x="31" y="270" width="230" height="88" as="geometry"/>
                </mxCell>
                <mxCell id="GIKGNwncqvEjht2F7XLn-13" value="- barCode:int&#10;- borrowedDate:Datetime" style="text;strokeColor=none;fillColor=none;align=left;verticalAlign=top;spacingLeft=4;spacingRight=4;overflow=hidden;rotatable=0;points=[[0,0.5],[1,0.5]];portConstraint=eastwest;" parent="GIKGNwncqvEjht2F7XLn-12" vertex="1">
                    <mxGeometry y="26" width="230" height="54" as="geometry"/>
                </mxCell>
                <mxCell id="GIKGNwncqvEjht2F7XLn-14" value="" style="line;strokeWidth=1;fillColor=none;align=left;verticalAlign=middle;spacingTop=-1;spacingLeft=3;spacingRight=3;rotatable=0;labelPosition=right;points=[];portConstraint=eastwest;" parent="GIKGNwncqvEjht2F7XLn-12" vertex="1">
                    <mxGeometry y="80" width="230" height="8" as="geometry"/>
                </mxCell>
                <mxCell id="GIKGNwncqvEjht2F7XLn-21" value="" style="endArrow=open;html=1;rounded=0;exitX=0.552;exitY=-0.034;exitDx=0;exitDy=0;exitPerimeter=0;endFill=0;" parent="1" source="GIKGNwncqvEjht2F7XLn-12" edge="1">
                    <mxGeometry width="50" height="50" relative="1" as="geometry">
                        <mxPoint x="108" y="269" as="sourcePoint"/>
                        <mxPoint x="158" y="219" as="targetPoint"/>
                    </mxGeometry>
                </mxCell>
                <mxCell id="GIKGNwncqvEjht2F7XLn-22" value="Author" style="swimlane;fontStyle=1;align=center;verticalAlign=top;childLayout=stackLayout;horizontal=1;startSize=26;horizontalStack=0;resizeParent=1;resizeParentMax=0;resizeLast=0;collapsible=1;marginBottom=0;fillColor=none;" parent="1" vertex="1">
                    <mxGeometry x="340" y="40" width="160" height="68" as="geometry"/>
                </mxCell>
                <mxCell id="GIKGNwncqvEjht2F7XLn-23" value="- authorName : String" style="text;strokeColor=none;fillColor=none;align=left;verticalAlign=top;spacingLeft=4;spacingRight=4;overflow=hidden;rotatable=0;points=[[0,0.5],[1,0.5]];portConstraint=eastwest;" parent="GIKGNwncqvEjht2F7XLn-22" vertex="1">
                    <mxGeometry y="26" width="160" height="34" as="geometry"/>
                </mxCell>
                <mxCell id="GIKGNwncqvEjht2F7XLn-24" value="" style="line;strokeWidth=1;fillColor=none;align=left;verticalAlign=middle;spacingTop=-1;spacingLeft=3;spacingRight=3;rotatable=0;labelPosition=right;points=[];portConstraint=eastwest;" parent="GIKGNwncqvEjht2F7XLn-22" vertex="1">
                    <mxGeometry y="60" width="160" height="8" as="geometry"/>
                </mxCell>
                <mxCell id="GIKGNwncqvEjht2F7XLn-26" value="Library" style="swimlane;fontStyle=1;align=center;verticalAlign=top;childLayout=stackLayout;horizontal=1;startSize=26;horizontalStack=0;resizeParent=1;resizeParentMax=0;resizeLast=0;collapsible=1;marginBottom=0;fillColor=none;" parent="1" vertex="1">
                    <mxGeometry x="345" y="180" width="160" height="108" as="geometry"/>
                </mxCell>
                <mxCell id="GIKGNwncqvEjht2F7XLn-27" value="- libraryName:String&#10;- libraryAddress:String&#10;" style="text;strokeColor=none;fillColor=none;align=left;verticalAlign=top;spacingLeft=4;spacingRight=4;overflow=hidden;rotatable=0;points=[[0,0.5],[1,0.5]];portConstraint=eastwest;" parent="GIKGNwncqvEjht2F7XLn-26" vertex="1">
                    <mxGeometry y="26" width="160" height="74" as="geometry"/>
                </mxCell>
                <mxCell id="GIKGNwncqvEjht2F7XLn-28" value="" style="line;strokeWidth=1;fillColor=none;align=left;verticalAlign=middle;spacingTop=-1;spacingLeft=3;spacingRight=3;rotatable=0;labelPosition=right;points=[];portConstraint=eastwest;" parent="GIKGNwncqvEjht2F7XLn-26" vertex="1">
                    <mxGeometry y="100" width="160" height="8" as="geometry"/>
                </mxCell>
                <mxCell id="GIKGNwncqvEjht2F7XLn-30" value="" style="endArrow=diamondThin;endFill=0;endSize=24;html=1;rounded=0;exitX=1;exitY=0.5;exitDx=0;exitDy=0;" parent="1" source="GIKGNwncqvEjht2F7XLn-13" target="GIKGNwncqvEjht2F7XLn-27" edge="1">
                    <mxGeometry width="160" relative="1" as="geometry">
                        <mxPoint x="280" y="310" as="sourcePoint"/>
                        <mxPoint x="380" y="310" as="targetPoint"/>
                        <Array as="points">
                            <mxPoint x="280" y="220"/>
                        </Array>
                    </mxGeometry>
                </mxCell>
                <mxCell id="GIKGNwncqvEjht2F7XLn-41" value="*" style="edgeLabel;html=1;align=center;verticalAlign=middle;resizable=0;points=[];" parent="GIKGNwncqvEjht2F7XLn-30" vertex="1" connectable="0">
                    <mxGeometry x="-0.1655" relative="1" as="geometry">
                        <mxPoint x="-3" y="62" as="offset"/>
                    </mxGeometry>
                </mxCell>
                <mxCell id="GIKGNwncqvEjht2F7XLn-31" value="Patron" style="swimlane;fontStyle=1;align=center;verticalAlign=top;childLayout=stackLayout;horizontal=1;startSize=26;horizontalStack=0;resizeParent=1;resizeParentMax=0;resizeLast=0;collapsible=1;marginBottom=0;fillColor=none;" parent="1" vertex="1">
                    <mxGeometry x="345" y="451" width="160" height="108" as="geometry"/>
                </mxCell>
                <mxCell id="GIKGNwncqvEjht2F7XLn-32" value="- patronName:String&#10;- patronAddress:String" style="text;strokeColor=none;fillColor=none;align=left;verticalAlign=top;spacingLeft=4;spacingRight=4;overflow=hidden;rotatable=0;points=[[0,0.5],[1,0.5]];portConstraint=eastwest;" parent="GIKGNwncqvEjht2F7XLn-31" vertex="1">
                    <mxGeometry y="26" width="160" height="74" as="geometry"/>
                </mxCell>
                <mxCell id="GIKGNwncqvEjht2F7XLn-33" value="" style="line;strokeWidth=1;fillColor=none;align=left;verticalAlign=middle;spacingTop=-1;spacingLeft=3;spacingRight=3;rotatable=0;labelPosition=right;points=[];portConstraint=eastwest;" parent="GIKGNwncqvEjht2F7XLn-31" vertex="1">
                    <mxGeometry y="100" width="160" height="8" as="geometry"/>
                </mxCell>
                <mxCell id="GIKGNwncqvEjht2F7XLn-35" value="Account" style="swimlane;fontStyle=1;align=center;verticalAlign=top;childLayout=stackLayout;horizontal=1;startSize=26;horizontalStack=0;resizeParent=1;resizeParentMax=0;resizeLast=0;collapsible=1;marginBottom=0;fillColor=none;" parent="1" vertex="1">
                    <mxGeometry x="570" y="180" width="160" height="88" as="geometry"/>
                </mxCell>
                <mxCell id="GIKGNwncqvEjht2F7XLn-36" value="- accountNumber:int&#10;- openedDate:Date&#10;" style="text;strokeColor=none;fillColor=none;align=left;verticalAlign=top;spacingLeft=4;spacingRight=4;overflow=hidden;rotatable=0;points=[[0,0.5],[1,0.5]];portConstraint=eastwest;" parent="GIKGNwncqvEjht2F7XLn-35" vertex="1">
                    <mxGeometry y="26" width="160" height="54" as="geometry"/>
                </mxCell>
                <mxCell id="GIKGNwncqvEjht2F7XLn-37" value="" style="line;strokeWidth=1;fillColor=none;align=left;verticalAlign=middle;spacingTop=-1;spacingLeft=3;spacingRight=3;rotatable=0;labelPosition=right;points=[];portConstraint=eastwest;" parent="GIKGNwncqvEjht2F7XLn-35" vertex="1">
                    <mxGeometry y="80" width="160" height="8" as="geometry"/>
                </mxCell>
                <mxCell id="GIKGNwncqvEjht2F7XLn-39" value="" style="endArrow=none;endFill=0;endSize=24;html=1;rounded=0;strokeColor=default;startArrow=diamond;startFill=0;exitX=1;exitY=0.5;exitDx=0;exitDy=0;" parent="1" source="GIKGNwncqvEjht2F7XLn-27" edge="1">
                    <mxGeometry width="160" relative="1" as="geometry">
                        <mxPoint x="511" y="228.84" as="sourcePoint"/>
                        <mxPoint x="570" y="239.15034482758617" as="targetPoint"/>
                        <Array as="points"/>
                    </mxGeometry>
                </mxCell>
                <mxCell id="GIKGNwncqvEjht2F7XLn-40" value="*" style="edgeLabel;html=1;align=center;verticalAlign=middle;resizable=0;points=[];" parent="GIKGNwncqvEjht2F7XLn-39" vertex="1" connectable="0">
                    <mxGeometry x="-0.3839" y="6" relative="1" as="geometry">
                        <mxPoint x="32" y="-3" as="offset"/>
                    </mxGeometry>
                </mxCell>
                <mxCell id="GIKGNwncqvEjht2F7XLn-42" value="Librarian" style="swimlane;fontStyle=1;align=center;verticalAlign=top;childLayout=stackLayout;horizontal=1;startSize=26;horizontalStack=0;resizeParent=1;resizeParentMax=0;resizeLast=0;collapsible=1;marginBottom=0;fillColor=none;" parent="1" vertex="1">
                    <mxGeometry x="347" y="308" width="160" height="108" as="geometry"/>
                </mxCell>
                <mxCell id="GIKGNwncqvEjht2F7XLn-43" value="- Name:String&#10;- Address:String&#10;-position:String&#10;" style="text;strokeColor=none;fillColor=none;align=left;verticalAlign=top;spacingLeft=4;spacingRight=4;overflow=hidden;rotatable=0;points=[[0,0.5],[1,0.5]];portConstraint=eastwest;" parent="GIKGNwncqvEjht2F7XLn-42" vertex="1">
                    <mxGeometry y="26" width="160" height="74" as="geometry"/>
                </mxCell>
                <mxCell id="GIKGNwncqvEjht2F7XLn-44" value="" style="line;strokeWidth=1;fillColor=none;align=left;verticalAlign=middle;spacingTop=-1;spacingLeft=3;spacingRight=3;rotatable=0;labelPosition=right;points=[];portConstraint=eastwest;" parent="GIKGNwncqvEjht2F7XLn-42" vertex="1">
                    <mxGeometry y="100" width="160" height="8" as="geometry"/>
                </mxCell>
                <mxCell id="GIKGNwncqvEjht2F7XLn-46" value="&lt;&lt;interface&gt;&gt;Search" style="swimlane;fontStyle=1;align=center;verticalAlign=top;childLayout=stackLayout;horizontal=1;startSize=26;horizontalStack=0;resizeParent=1;resizeParentMax=0;resizeLast=0;collapsible=1;marginBottom=0;fillColor=none;" parent="1" vertex="1">
                    <mxGeometry x="20" y="482" width="160" height="60" as="geometry"/>
                </mxCell>
                <mxCell id="GIKGNwncqvEjht2F7XLn-48" value="" style="line;strokeWidth=1;fillColor=none;align=left;verticalAlign=middle;spacingTop=-1;spacingLeft=3;spacingRight=3;rotatable=0;labelPosition=right;points=[];portConstraint=eastwest;" parent="GIKGNwncqvEjht2F7XLn-46" vertex="1">
                    <mxGeometry y="26" width="160" height="8" as="geometry"/>
                </mxCell>
                <mxCell id="GIKGNwncqvEjht2F7XLn-49" value="+ search()" style="text;strokeColor=none;fillColor=none;align=left;verticalAlign=top;spacingLeft=4;spacingRight=4;overflow=hidden;rotatable=0;points=[[0,0.5],[1,0.5]];portConstraint=eastwest;" parent="GIKGNwncqvEjht2F7XLn-46" vertex="1">
                    <mxGeometry y="34" width="160" height="26" as="geometry"/>
                </mxCell>
                <mxCell id="GIKGNwncqvEjht2F7XLn-50" value="&lt;&lt;interface&gt;&gt;manage" style="swimlane;fontStyle=1;align=center;verticalAlign=top;childLayout=stackLayout;horizontal=1;startSize=31;horizontalStack=0;resizeParent=1;resizeParentMax=0;resizeLast=0;collapsible=1;marginBottom=0;fillColor=none;" parent="1" vertex="1">
                    <mxGeometry x="22" y="390" width="160" height="65" as="geometry"/>
                </mxCell>
                <mxCell id="GIKGNwncqvEjht2F7XLn-51" value="" style="line;strokeWidth=1;fillColor=none;align=left;verticalAlign=middle;spacingTop=-1;spacingLeft=3;spacingRight=3;rotatable=0;labelPosition=right;points=[];portConstraint=eastwest;" parent="GIKGNwncqvEjht2F7XLn-50" vertex="1">
                    <mxGeometry y="31" width="160" height="8" as="geometry"/>
                </mxCell>
                <mxCell id="GIKGNwncqvEjht2F7XLn-52" value="+manage()" style="text;strokeColor=none;fillColor=none;align=left;verticalAlign=top;spacingLeft=4;spacingRight=4;overflow=hidden;rotatable=0;points=[[0,0.5],[1,0.5]];portConstraint=eastwest;" parent="GIKGNwncqvEjht2F7XLn-50" vertex="1">
                    <mxGeometry y="39" width="160" height="26" as="geometry"/>
                </mxCell>
                <mxCell id="GIKGNwncqvEjht2F7XLn-53" value="" style="endArrow=none;html=1;rounded=0;strokeColor=default;entryX=0;entryY=0.75;entryDx=0;entryDy=0;exitX=1.017;exitY=0.338;exitDx=0;exitDy=0;exitPerimeter=0;" parent="1" source="GIKGNwncqvEjht2F7XLn-6" target="GIKGNwncqvEjht2F7XLn-22" edge="1">
                    <mxGeometry width="50" height="50" relative="1" as="geometry">
                        <mxPoint x="251" y="110" as="sourcePoint"/>
                        <mxPoint x="301" y="60" as="targetPoint"/>
                    </mxGeometry>
                </mxCell>
                <mxCell id="GIKGNwncqvEjht2F7XLn-54" value="" style="endArrow=none;dashed=1;html=1;rounded=0;strokeColor=default;exitX=1;exitY=0.25;exitDx=0;exitDy=0;entryX=-0.016;entryY=0.954;entryDx=0;entryDy=0;entryPerimeter=0;endFill=0;startArrow=open;startFill=0;" parent="1" source="GIKGNwncqvEjht2F7XLn-50" target="GIKGNwncqvEjht2F7XLn-43" edge="1">
                    <mxGeometry width="50" height="50" relative="1" as="geometry">
                        <mxPoint x="230" y="440" as="sourcePoint"/>
                        <mxPoint x="280" y="390" as="targetPoint"/>
                    </mxGeometry>
                </mxCell>
                <mxCell id="GIKGNwncqvEjht2F7XLn-55" value="" style="endArrow=none;dashed=1;html=1;rounded=0;strokeColor=default;exitX=1;exitY=0.25;exitDx=0;exitDy=0;entryX=-0.016;entryY=0.954;entryDx=0;entryDy=0;entryPerimeter=0;endFill=0;startArrow=open;startFill=0;" parent="1" edge="1">
                    <mxGeometry width="50" height="50" relative="1" as="geometry">
                        <mxPoint x="182" y="504.25" as="sourcePoint"/>
                        <mxPoint x="344.44000000000005" y="502.596" as="targetPoint"/>
                    </mxGeometry>
                </mxCell>
                <mxCell id="GIKGNwncqvEjht2F7XLn-56" value="" style="endArrow=none;dashed=1;html=1;rounded=0;strokeColor=default;exitX=1;exitY=0.25;exitDx=0;exitDy=0;entryX=-0.016;entryY=0.954;entryDx=0;entryDy=0;entryPerimeter=0;endFill=0;startArrow=open;startFill=0;" parent="1" source="GIKGNwncqvEjht2F7XLn-46" edge="1">
                    <mxGeometry width="50" height="50" relative="1" as="geometry">
                        <mxPoint x="183" y="421.25" as="sourcePoint"/>
                        <mxPoint x="345.44000000000005" y="419.596" as="targetPoint"/>
                        <Array as="points">
                            <mxPoint x="240" y="430"/>
                        </Array>
                    </mxGeometry>
                </mxCell>
            </root>
        </mxGraphModel>
    </diagram>
</mxfile>